<?xml version="1.0" encoding="utf-8"?>
<svg version="1.1" xmlns:xlink="http://www.w3.org/1999/xlink" width="25px" height="24px" xmlns="http://www.w3.org/2000/svg">
  <g transform="matrix(1 0 0 1 -104 -95 )">
    <path d="M 18.5953776041667 10.1484375  C 18.6984592013889 10.2473958333333  18.75 10.3645833333333  18.75 10.5  L 18.75 13.5  C 18.75 13.6354166666667  18.6984592013889 13.7526041666667  18.5953776041667 13.8515625  C 18.4922960069444 13.9505208333333  18.3702256944444 14  18.2291666666667 14  L 12.5 14  L 12.5 17  C 12.5 17.1458333333333  12.451171875 17.265625  12.353515625 17.359375  C 12.255859375 17.453125  12.1310763888889 17.5  11.9791666666667 17.5  C 11.8489583333333 17.5  11.71875 17.4479166666667  11.5885416666667 17.34375  L 6.396484375 12.359375  C 6.298828125 12.265625  6.25 12.1458333333333  6.25 12  C 6.25 11.8541666666667  6.298828125 11.734375  6.396484375 11.640625  L 11.6048177083333 6.640625  C 11.7024739583333 6.546875  11.8272569444444 6.5  11.9791666666667 6.5  C 12.1202256944444 6.5  12.2422960069444 6.54947916666666  12.3453776041667 6.6484375  C 12.4484592013889 6.74739583333333  12.5 6.86458333333333  12.5 7  L 12.5 10  L 18.2291666666667 10  C 18.3702256944444 10  18.4922960069444 10.0494791666667  18.5953776041667 10.1484375  Z M 20.166015625 16.265625  C 20.9581163194444 14.9635416666667  21.3541666666667 13.5416666666667  21.3541666666667 12  C 21.3541666666667 10.4583333333333  20.9581163194444 9.03645833333333  20.166015625 7.734375  C 19.3739149305556 6.43229166666666  18.2996961805556 5.40104166666666  16.943359375 4.640625  C 15.5870225694444 3.88020833333333  14.1059027777778 3.5  12.5 3.5  C 10.8940972222222 3.5  9.41297743055556 3.88020833333333  8.056640625 4.640625  C 6.70030381944444 5.40104166666666  5.62608506944444 6.43229166666666  4.833984375 7.734375  C 4.04188368055556 9.03645833333333  3.64583333333333 10.4583333333333  3.64583333333333 12  C 3.64583333333333 13.5416666666667  4.04188368055556 14.9635416666667  4.833984375 16.265625  C 5.62608506944444 17.5677083333333  6.70030381944444 18.5989583333333  8.056640625 19.359375  C 9.41297743055556 20.1197916666667  10.8940972222222 20.5  12.5 20.5  C 14.1059027777778 20.5  15.5870225694444 20.1197916666667  16.943359375 19.359375  C 18.2996961805556 18.5989583333333  19.3739149305556 17.5677083333333  20.166015625 16.265625  Z M 23.3235677083333 5.9765625  C 24.4411892361111 7.81510416666666  25 9.82291666666666  25 12  C 25 14.1770833333333  24.4411892361111 16.1848958333333  23.3235677083333 18.0234375  C 22.2059461805556 19.8619791666667  20.6895616319444 21.3177083333333  18.7744140625 22.390625  C 16.8592664930556 23.4635416666667  14.7677951388889 24  12.5 24  C 10.2322048611111 24  8.14073350694444 23.4635416666667  6.2255859375 22.390625  C 4.31043836805556 21.3177083333333  2.79405381944444 19.8619791666667  1.67643229166667 18.0234375  C 0.558810763888889 16.1848958333333  0 14.1770833333333  0 12  C 0 9.82291666666666  0.558810763888889 7.81510416666666  1.67643229166667 5.9765625  C 2.79405381944444 4.13802083333333  4.31043836805556 2.68229166666666  6.2255859375 1.609375  C 8.14073350694444 0.536458333333331  10.2322048611111 0  12.5 0  C 14.7677951388889 0  16.8592664930556 0.536458333333331  18.7744140625 1.609375  C 20.6895616319444 2.68229166666666  22.2059461805556 4.13802083333333  23.3235677083333 5.9765625  Z " fill-rule="nonzero" fill="#00bfff" stroke="none" transform="matrix(1 0 0 1 104 95 )" />
  </g>
</svg>