<?xml version="1.0" encoding="utf-8"?>
<svg version="1.1" xmlns:xlink="http://www.w3.org/1999/xlink" width="20px" height="18px" xmlns="http://www.w3.org/2000/svg">
  <g transform="matrix(1 0 0 1 -51 -169 )">
    <path d="M 19.3787212304687 7.780986484375  C 19.37868125 3.6221062109375  16.0153016210937 0.2503922265625  10.4968831054688 0.2503922265625  C 4.97846458984375 0.2503922265625  0.609846523437501 3.62212619140625  0.609846523437501 7.78100646484375  C 0.609846523437501 10.1363495507813  1.960370859375 12.2388440429688  4.20674783203125 13.619847734375  C 4.7156827734375 13.9324957617187  4.77332369140625 16.2797643164063  1.912003671875 17.6967835742187  C 1.912003671875 17.6967835742187  5.9632769140625 18.3653302929688  8.5323950390625 14.9673941015625  C 9.16774427734375 15.0627894140625  9.824738828125 15.2663314257812  10.4969031054688 15.2663314257812  C 16.0153216210938 15.2663314257812  19.3787212304687 11.9401465820313  19.3787212304687 7.780986484375  Z M 6.87118134765625 7.7457903515625  C 6.87118134765625 8.78068869140625  6.03223015625 9.6196398828125  4.99733181640625 9.6196398828125  C 3.9624334765625 9.6196398828125  3.12348228515625 8.78068869140625  3.12348228515625 7.7457903515625  C 3.12348228515625 6.71089201171875  3.9624334765625 5.8719408203125  4.99733181640625 5.8719408203125  C 6.03223015625 5.8719408203125  6.87118134765625 6.71089201171875  6.87118134765625 7.7457903515625  Z M 11.8681134179688 7.7457903515625  C 11.8681134179688 8.78068869140625  11.0291622265625 9.6196398828125  9.99426388671875 9.6196398828125  C 8.959365546875 9.6196398828125  8.12041435546875 8.78068869140625  8.12041435546875 7.7457903515625  C 8.12041435546875 6.71089201171875  8.959365546875 5.8719408203125  9.99426388671875 5.8719408203125  C 11.0291622265625 5.8719408203125  11.8681134179688 6.71089201171875  11.8681134179688 7.7457903515625  Z M 16.8650455078125 7.7457903515625  C 16.8650455078125 8.78068869140625  16.0260943164063 9.6196398828125  14.9911959765625 9.6196398828125  C 13.9562976367187 9.6196398828125  13.1173464453125 8.78068869140625  13.1173464453125 7.7457903515625  C 13.1173464453125 6.71089201171875  13.9562976367187 5.8719408203125  14.9911959765625 5.8719408203125  C 16.0260943164063 5.8719408203125  16.8650455078125 6.71089201171875  16.8650455078125 7.7457903515625  Z " fill-rule="nonzero" fill="#00bfff" stroke="none" transform="matrix(1 0 0 1 51 169 )" />
  </g>
</svg>