<?xml version="1.0" encoding="utf-8"?>
<svg version="1.1" xmlns:xlink="http://www.w3.org/1999/xlink" width="25px" height="20px" xmlns="http://www.w3.org/2000/svg">
  <g transform="matrix(1 0 0 1 -47 -316 )">
    <path d="M 10.552978515625 15.33203125  C 10.809326171875 14.9978298611111  10.9375 14.5920138888889  10.9375 14.1145833333333  C 10.9375 13.6458333333333  10.906982421875 13.2096354166667  10.845947265625 12.8059895833333  C 10.784912109375 12.40234375  10.6852213541667 12.01171875  10.546875 11.6341145833333  C 10.4085286458333 11.2565104166667  10.2010091145833 10.9592013888889  9.92431640625 10.7421875  C 9.64762369791667 10.5251736111111  9.31803385416667 10.4166666666667  8.935546875 10.4166666666667  C 8.41471354166667 10.9722222222222  7.77994791666667 11.25  7.03125 11.25  C 6.28255208333333 11.25  5.64778645833333 10.9722222222222  5.126953125 10.4166666666667  C 4.74446614583333 10.4166666666667  4.41487630208333 10.5251736111111  4.13818359375 10.7421875  C 3.86149088541667 10.9592013888889  3.65397135416667 11.2565104166667  3.515625 11.6341145833333  C 3.37727864583333 12.01171875  3.277587890625 12.40234375  3.216552734375 12.8059895833333  C 3.155517578125 13.2096354166667  3.125 13.6458333333333  3.125 14.1145833333333  C 3.125 14.5920138888889  3.253173828125 14.9978298611111  3.509521484375 15.33203125  C 3.765869140625 15.6662326388889  4.07307942708333 15.8333333333333  4.43115234375 15.8333333333333  L 9.63134765625 15.8333333333333  C 9.98942057291667 15.8333333333333  10.296630859375 15.6662326388889  10.552978515625 15.33203125  Z M 8.69140625 10.1041666666667  C 9.14713541666667 9.61805555555556  9.375 9.02777777777778  9.375 8.33333333333333  C 9.375 7.63888888888889  9.14713541666667 7.04861111111111  8.69140625 6.5625  C 8.23567708333333 6.07638888888889  7.68229166666667 5.83333333333333  7.03125 5.83333333333333  C 6.38020833333333 5.83333333333333  5.82682291666667 6.07638888888889  5.37109375 6.5625  C 4.91536458333333 7.04861111111111  4.6875 7.63888888888889  4.6875 8.33333333333333  C 4.6875 9.02777777777778  4.91536458333333 9.61805555555556  5.37109375 10.1041666666667  C 5.82682291666667 10.5902777777778  6.38020833333333 10.8333333333333  7.03125 10.8333333333333  C 7.68229166666667 10.8333333333333  8.23567708333333 10.5902777777778  8.69140625 10.1041666666667  Z M 21.76513671875 14.8828125  C 21.83837890625 14.8046875  21.875 14.7048611111111  21.875 14.5833333333333  L 21.875 13.75  C 21.875 13.6284722222222  21.83837890625 13.5286458333333  21.76513671875 13.4505208333333  C 21.69189453125 13.3723958333333  21.5983072916667 13.3333333333333  21.484375 13.3333333333333  L 12.890625 13.3333333333333  C 12.7766927083333 13.3333333333333  12.68310546875 13.3723958333333  12.60986328125 13.4505208333333  C 12.53662109375 13.5286458333333  12.5 13.6284722222222  12.5 13.75  L 12.5 14.5833333333333  C 12.5 14.7048611111111  12.53662109375 14.8046875  12.60986328125 14.8828125  C 12.68310546875 14.9609375  12.7766927083333 15  12.890625 15  L 21.484375 15  C 21.5983072916667 15  21.69189453125 14.9609375  21.76513671875 14.8828125  Z M 17.07763671875 11.5494791666667  C 17.15087890625 11.4713541666667  17.1875 11.3715277777778  17.1875 11.25  L 17.1875 10.4166666666667  C 17.1875 10.2951388888889  17.15087890625 10.1953125  17.07763671875 10.1171875  C 17.00439453125 10.0390625  16.9108072916667 10  16.796875 10  L 12.890625 10  C 12.7766927083333 10  12.68310546875 10.0390625  12.60986328125 10.1171875  C 12.53662109375 10.1953125  12.5 10.2951388888889  12.5 10.4166666666667  L 12.5 11.25  C 12.5 11.3715277777778  12.53662109375 11.4713541666667  12.60986328125 11.5494791666667  C 12.68310546875 11.6276041666667  12.7766927083333 11.6666666666667  12.890625 11.6666666666667  L 16.796875 11.6666666666667  C 16.9108072916667 11.6666666666667  17.00439453125 11.6276041666667  17.07763671875 11.5494791666667  Z M 21.76513671875 11.5494791666667  C 21.83837890625 11.4713541666667  21.875 11.3715277777778  21.875 11.25  L 21.875 10.4166666666667  C 21.875 10.2951388888889  21.83837890625 10.1953125  21.76513671875 10.1171875  C 21.69189453125 10.0390625  21.5983072916667 10  21.484375 10  L 19.140625 10  C 19.0266927083333 10  18.93310546875 10.0390625  18.85986328125 10.1171875  C 18.78662109375 10.1953125  18.75 10.2951388888889  18.75 10.4166666666667  L 18.75 11.25  C 18.75 11.3715277777778  18.78662109375 11.4713541666667  18.85986328125 11.5494791666667  C 18.93310546875 11.6276041666667  19.0266927083333 11.6666666666667  19.140625 11.6666666666667  L 21.484375 11.6666666666667  C 21.5983072916667 11.6666666666667  21.69189453125 11.6276041666667  21.76513671875 11.5494791666667  Z M 21.76513671875 8.21614583333333  C 21.83837890625 8.13802083333333  21.875 8.03819444444444  21.875 7.91666666666667  L 21.875 7.08333333333333  C 21.875 6.96180555555556  21.83837890625 6.86197916666667  21.76513671875 6.78385416666667  C 21.69189453125 6.70572916666667  21.5983072916667 6.66666666666667  21.484375 6.66666666666667  L 12.890625 6.66666666666667  C 12.7766927083333 6.66666666666667  12.68310546875 6.70572916666667  12.60986328125 6.78385416666667  C 12.53662109375 6.86197916666667  12.5 6.96180555555556  12.5 7.08333333333333  L 12.5 7.91666666666667  C 12.5 8.03819444444444  12.53662109375 8.13802083333333  12.60986328125 8.21614583333333  C 12.68310546875 8.29427083333333  12.7766927083333 8.33333333333333  12.890625 8.33333333333333  L 21.484375 8.33333333333333  C 21.5983072916667 8.33333333333333  21.69189453125 8.29427083333333  21.76513671875 8.21614583333333  Z M 1.5625 2.08333333333333  L 1.5625 3.33333333333333  L 23.4375 3.33333333333333  L 23.4375 2.08333333333333  C 23.4375 1.96180555555555  23.40087890625 1.86197916666667  23.32763671875 1.78385416666667  C 23.25439453125 1.70572916666667  23.1608072916667 1.66666666666667  23.046875 2  L 1.953125 2  C 1.83919270833333 1.66666666666667  1.74560546875 1.70572916666667  1.67236328125 1.78385416666667  C 1.59912109375 1.86197916666667  1.5625 1.96180555555555  1.5625 2.08333333333333  Z M 24.42626953125 0.611979166666667  C 24.8087565104167 1.01996527777778  25 1.51041666666667  25 2.08333333333333  L 25 17.9166666666667  C 25 18.4895833333333  24.8087565104167 18.9800347222222  24.42626953125 19.3880208333333  C 24.0437825520833 19.7960069444444  23.583984375 20  23.046875 20  L 1.953125 20  C 1.416015625 20  0.956217447916667 19.7960069444444  0.57373046875 19.3880208333333  C 0.191243489583333 18.9800347222222  0 18.4895833333333  0 17.9166666666667  L 0 2.08333333333333  C 0 1.51041666666667  0.191243489583333 1.01996527777778  0.57373046875 0.611979166666667  C 0.956217447916667 0.203993055555554  1.416015625 0  1.953125 0  L 23.046875 0  C 23.583984375 0  24.0437825520833 0.203993055555554  24.42626953125 0.611979166666667  Z " fill-rule="nonzero" fill="#00bfff" stroke="none" transform="matrix(1 0 0 1 47 316 )" />
  </g>
</svg>