<?xml version="1.0" encoding="utf-8"?>
<svg version="1.1" xmlns:xlink="http://www.w3.org/1999/xlink" width="25px" height="22px" xmlns="http://www.w3.org/2000/svg">
  <g transform="matrix(1 0 0 1 -47 -463 )">
    <path d="M 17.822265625 2.82877604166667  C 16.1714099702381 2.16514756944444  14.3973214285714 1.83333333333333  12.5 1.83333333333333  C 10.6026785714286 1.83333333333333  8.82859002976191 2.16514756944444  7.177734375 2.82877604166667  C 5.52687872023809 3.49240451388889  4.21549479166667 4.38758680555555  3.24358258928571 5.51432291666667  C 2.27167038690476 6.64105902777778  1.78571428571429 7.85850694444444  1.78571428571429 9.16666666666667  C 1.78571428571429 10.2361111111111  2.11821056547619 11.2554253472222  2.783203125 12.224609375  C 3.44819568452381 13.1937934027778  4.38523065476191 14.0316840277778  5.59430803571429 14.73828125  L 6.80803571428571 15.4544270833333  L 6.43136160714286 16.8294270833333  C 6.20814732142857 17.6983506944444  5.88262648809524 18.51953125  5.45479910714286 19.29296875  C 6.86848958333333 18.69140625  8.14732142857143 17.875  9.29129464285714 16.84375  L 9.89118303571429 16.2994791666667  L 10.6863839285714 16.3854166666667  C 11.328125 16.4618055555556  11.9326636904762 16.5  12.5 16.5  C 14.3973214285714 16.5  16.1714099702381 16.1681857638889  17.822265625 15.5045572916667  C 19.4731212797619 14.8409288194444  20.7845052083333 13.9457465277778  21.7564174107143 12.8190104166667  C 22.7283296130952 11.6922743055556  23.2142857142857 10.4748263888889  23.2142857142857 9.16666666666667  C 23.2142857142857 7.85850694444444  22.7283296130952 6.64105902777778  21.7564174107143 5.51432291666667  C 20.7845052083333 4.38758680555555  19.4731212797619 3.49240451388889  17.822265625 2.82877604166667  Z M 23.3258928571429 4.56184895833333  C 24.4419642857143 5.97026909722222  25 7.50520833333333  25 9.16666666666667  C 25 10.828125  24.4419642857143 12.3630642361111  23.3258928571429 13.771484375  C 22.2098214285714 15.1799045138889  20.6938244047619 16.2923177083333  18.7779017857143 17.1087239583333  C 16.8619791666667 17.9251302083333  14.7693452380952 18.3333333333333  12.5 18.3333333333333  C 11.8489583333333 18.3333333333333  11.1746651785714 18.2951388888889  10.4771205357143 18.21875  C 8.63560267857143 19.8897569444444  6.49646577380952 21.0451388888889  4.05970982142857 21.6848958333333  C 3.60398065476191 21.8185763888889  3.07384672619048 21.9236111111111  2.46930803571429 22  L 2.39955357142857 22  C 2.26004464285714 22  2.13448660714286 21.9498697916667  2.02287946428571 21.849609375  C 1.91127232142857 21.7493489583333  1.83686755952381 21.6180555555556  1.79966517857143 21.4557291666667  L 1.79966517857143 21.44140625  C 1.77176339285714 21.4032118055556  1.76943824404762 21.3459201388889  1.79268973214286 21.26953125  C 1.8159412202381 21.1931423611111  1.82524181547619 21.1453993055556  1.82059151785714 21.1263020833333  C 1.8159412202381 21.1072048611111  1.83686755952381 21.0618489583333  1.88337053571429 20.990234375  L 1.96707589285714 20.861328125  C 1.96707589285714 20.861328125  1.99962797619048 20.8207465277778  2.06473214285714 20.7395833333333  C 2.12983630952381 20.6584201388889  2.16703869047619 20.6154513888889  2.17633928571429 20.6106770833333  C 2.24144345238095 20.5342881944444  2.38560267857143 20.3695746527778  2.60881696428571 20.1165364583333  C 2.83203125 19.8634982638889  2.99246651785714 19.6820746527778  3.09012276785714 19.572265625  C 3.18777901785714 19.4624565972222  3.33193824404762 19.2738715277778  3.52260044642857 19.0065104166667  C 3.71326264880952 18.7391493055556  3.86439732142857 18.4956597222222  3.97600446428571 18.2760416666667  C 4.08761160714286 18.0564236111111  4.21316964285714 17.7747395833333  4.35267857142857 17.4309895833333  C 4.4921875 17.0872395833333  4.61309523809524 16.7243923611111  4.71540178571429 16.3424479166667  C 3.25520833333333 15.4926215277778  2.10425967261905 14.4422743055556  1.26255580357143 13.19140625  C 0.420851934523809 11.9405381944444  0 10.5989583333333  0 9.16666666666667  C 0 7.50520833333333  0.558035714285714 5.97026909722222  1.67410714285714 4.56184895833333  C 2.79017857142857 3.15342881944444  4.30617559523809 2.041015625  6.22209821428571 1.224609375  C 8.13802083333333 0.408203125  10.2306547619048 0  12.5 0  C 14.7693452380952 0  16.8619791666667 0.408203125  18.7779017857143 1.224609375  C 20.6938244047619 2.041015625  22.2098214285714 3.15342881944444  23.3258928571429 4.56184895833333  Z " fill-rule="nonzero" fill="#00bfff" stroke="none" transform="matrix(1 0 0 1 47 463 )" />
  </g>
</svg>