<?xml version="1.0" encoding="utf-8"?>
<svg version="1.1" xmlns:xlink="http://www.w3.org/1999/xlink" width="30px" height="28px" xmlns="http://www.w3.org/2000/svg">
  <g transform="matrix(1 0 0 1 -13 -13 )">
    <path d="M 4.06808035714286 10.8888888888889  L 10.7142857142857 17.8277153558052  L 10.7142857142857 19.0511860174782  C 10.7142857142857 19.5405742821473  10.4966517857143 19.8843112775697  10.0613839285714 20.0823970037453  C 9.91629464285714 20.140657511444  9.77678571428572 20.1697877652934  9.64285714285715 20.1697877652934  C 9.34151785714285 20.1697877652934  9.09040178571428 20.0590928006658  8.88950892857143 19.8377028714107  L 0.318080357142857 10.8888888888889  C 0.106026785714286 10.6674989596338  0 10.4053266749896  0 10.1023720349563  C 0 9.79941739492301  0.106026785714286 9.53724511027881  0.318080357142857 9.31585518102372  L 8.88950892857143 0.367041198501873  C 9.21316964285714 0.00582605076986908  9.60379464285715 -0.0757386600083283  10.0613839285714 0.122347066167292  C 10.4966517857143 0.320432792342904  10.7142857142857 0.664169787765292  10.7142857142857 1.15355805243446  L 10.7142857142857 2.35955056179775  L 4.06808035714286 9.31585518102372  C 3.85602678571429 9.53724511027881  3.75 9.79941739492301  3.75 10.1023720349563  C 3.75 10.4053266749896  3.85602678571429 10.6674989596338  4.06808035714286 10.8888888888889  Z M 27.1707589285714 9.59550561797753  C 29.0569196428571 11.6113191843529  30 14.5767790262172  30 18.4918851435705  C 30 19.1677070328756  29.9051339285714 19.9454848106533  29.7154017857143 20.8252184769039  C 29.5256696428571 21.7049521431544  29.3108258928571 22.5089471493966  29.0708705357143 23.2372034956305  C 28.8309151785714 23.9654598418643  28.5630580357143 24.6937161880982  28.2672991071429 25.4219725343321  C 27.9715401785714 26.150228880566  27.7455357142857 26.6774864752393  27.5892857142857 27.0037453183521  L 27.2544642857143 27.7028714107366  C 27.1651785714286 27.9009571369122  27.0089285714286 28  26.7857142857143 28  C 26.71875 28  26.6685267857143 27.9941739492301  26.6350446428571 27.9825218476904  C 26.3560267857143 27.8893050353725  26.2276785714286 27.6912193091968  26.25 27.3882646691635  C 26.7299107142857 22.7274240532667  26.1383928571429 19.4357053682896  24.4754464285714 17.5131086142322  C 23.7611607142857 16.6858094049105  22.8097098214286 16.0420307948398  21.62109375 15.58177278402  C 20.4324776785714 15.1215147732002  18.9397321428571 14.8156471077819  17.1428571428571 14.6641697877653  L 17.1428571428571 19.0511860174782  C 17.1428571428571 19.5405742821473  16.9252232142857 19.8843112775697  16.4899553571429 20.0823970037453  C 16.3448660714286 20.140657511444  16.2053571428571 20.1697877652934  16.0714285714286 20.1697877652934  C 15.7700892857143 20.1697877652934  15.5189732142857 20.0590928006658  15.3180803571429 19.8377028714107  L 6.74665178571429 10.8888888888889  C 6.53459821428571 10.6674989596338  6.42857142857143 10.4053266749896  6.42857142857143 10.1023720349563  C 6.42857142857143 9.79941739492301  6.53459821428571 9.53724511027881  6.74665178571429 9.31585518102372  L 9.65242009037844 6.28215084363652  L 15.3180803571429 0.367041198501873  C 15.6417410714286 0.00582605076986908  16.0323660714286 -0.0757386600083283  16.4899553571429 0.122347066167292  C 16.9252232142857 0.320432792342904  17.1428571428571 0.664169787765292  17.1428571428571 1.15355805243446  L 17.1428571428571 5.73283395755305  C 21.7299107142857 6.05909280066583  25.0725446428571 7.34665002080732  27.1707589285714 9.59550561797753  Z " fill-rule="nonzero" fill="#00bfff" stroke="none" transform="matrix(1 0 0 1 13 13 )" />
  </g>
</svg>