<?xml version="1.0" encoding="utf-8"?>
<svg version="1.1" xmlns:xlink="http://www.w3.org/1999/xlink" width="16px" height="20px" xmlns="http://www.w3.org/2000/svg">
  <g transform="matrix(1 0 0 1 -53 -217 )">
    <path d="M 15.9720249414062 17.3725613867188  C 15.9720249609375 18.8030915039063  14.8713712109375 19.9650237109375  13.5186683398438 20  L 2.48123171875 20  C 1.12760947265625 19.9650237109375  0.0279550390625003 18.8030915039062  0.0279550390625003 17.37256140625  L 0.0279550390625003 9.6010105078125  C 0.0279550390625003 8.1723991015625  1.127629453125 7.010486875  2.48123171875 7.010486875  L 3.1177001953125 7.010486875  C 3.05250439453125 6.68740591796875  3.0174481640625 6.3546115625  3.0174481640625 6.0139825  L 3.0174481640625 5.017478125  C 3.0174481640625 2.2654240234375  5.2479158984375 0.0349762695312489  8.00000998046875 0.0349762695312489  C 10.751064765625 0.0349762695312489  12.9825118359375 2.2654240234375  12.9825118359375 5.017478125  L 12.9825118359375 6.0139825  C 12.9825118359375 6.3545915625  12.947435625 6.68740591796875  12.8822598046875 7.010486875  L 13.5186683203125 7.010486875  C 14.8713711914062 7.010486875  15.9720249414062 8.1723991015625  15.9720249414062 9.6010105078125  L 15.9720249414062 17.3725613867188  Z M 5.9865351171875 11.9930087304688  C 5.98653513671875 12.7325873046875  6.39915537109375 13.3709744726563  7.00346564453125 13.7135222265625  L 7.00346564453125 15.9790262109375  C 7.00346564453125 16.5278541015625  7.45016279296875 16.9755105859375  8.00000998046875 16.9755105859375  C 8.5497972265625 16.9755105859375  8.99649435546875 16.5278541015625  8.99649435546875 15.9790262109375  L 8.996494375 13.7135222265625  C 9.6007646875 13.3709744726563  10.0124055859375 12.7325873046875  10.0124055859375 11.9930087304688  C 10.0124055859375 10.891395625  9.11127654296875 10  8.00000998046875 10  C 6.88766416015625 10  5.9865351171875 10.891395625  5.9865351171875 11.9930087304688  Z M 10.989503125 7.010486875  L 10.989503125 5.01747814453125  C 10.989503125 3.3660578125  9.65143033203125 2.0279650390625  8.00001 2.0279650390625  C 6.3485496875 2.0279650390625  5.0104569140625 3.36603783203125  5.0104569140625 5.01747814453125  L 5.0104569140625 7.010486875  L 10.989503125 7.010486875  Z " fill-rule="nonzero" fill="#00bfff" stroke="none" transform="matrix(1 0 0 1 53 217 )" />
  </g>
</svg>